# xmcd
#
# Track frame offsets: 
#        150
#        14250
#        26250
#        39150
#        50850
#        62100
#        73200
#        83250
#        95850
#        108900
#        122700
#        136500
#        148800
#        162750
#        177900
#        197850
#        215512
#        237562
#
# Disc length: 3351 seconds
#
# Revision: 0
# Processed by: cddbd v1.5.2PL0 Copyright (c) Steve Scherf et al.
# Submitted via: ExactAudioCopy v1.2
#
DISCID=fc0d1512
DTITLE=Goree Carter - Goree Carter with Special Guests Hardie Clifton 
DTITLE=& Sherry
DYEAR=2019
DGENRE=Blues
TTITLE0=She's Just Old Fashioned
TTITLE1=Rock a While
TTITLE2=Hoy Hoy
TTITLE3=Back Home Blues
TTITLE4=Sweet Old Woman Blues
TTITLE5=Lonely World
TTITLE6=I'll Send You
TTITLE7=How Can You Love Me
TTITLE8=My Love Is Coming Down
TTITLE9=Come on Let's Boogie
TTITLE10=What a Friend Will Do
TTITLE11=Just Thought of You
TTITLE12=Is It True
TTITLE13=Working with My Baby
TTITLE14=Hardie Clifton and Sherry Clifton - The Lord Will Make a Way
TTITLE15=Hardie Clifton and Sherry Clifton - Mother
TTITLE16=Hardie Clifton and Sherry Clifton - She Didn't Know
TTITLE17=Hardie Clifton and Sherry Clifton - You Were There
EXTD=
EXTT0=
EXTT1=
EXTT2=
EXTT3=
EXTT4=
EXTT5=
EXTT6=
EXTT7=
EXTT8=
EXTT9=
EXTT10=
EXTT11=
EXTT12=
EXTT13=
EXTT14=
EXTT15=
EXTT16=
EXTT17=
PLAYORDER=
